<svg xmlns="http://www.w3.org/2000/svg" viewBox="0 0 48 48"><g data-name="5-Artificial intelligence"><g data-name="&lt;Group&gt;"><path fill="#d9eef7" d="M24 3a2.006 2.006 0 0 1 2-2h6a2.006 2.006 0 0 1 2 2v4h5a2.006 2.006 0 0 1 2 2v6h3a2.006 2.006 0 0 1 2 2v14a2.006 2.006 0 0 1-2 2h-3v6a2.006 2.006 0 0 1-2 2h-5v4a2.006 2.006 0 0 1-2 2h-6a2.006 2.006 0 0 1-2-2 2.006 2.006 0 0 1-2 2h-6a2.006 2.006 0 0 1-2-2v-4H9a2.006 2.006 0 0 1-2-2v-6H4a2.006 2.006 0 0 1-2-2V17a2.006 2.006 0 0 1 2-2h3V9a2.006 2.006 0 0 1 2-2h5V3a2.006 2.006 0 0 1 2-2h6a2.006 2.006 0 0 1 2 2z"/><path fill="none" stroke="#4c5b66" stroke-linejoin="round" stroke-width="2" d="M24 3a2.006 2.006 0 0 0-2-2h-6a2.006 2.006 0 0 0-2 2v4H9a2.006 2.006 0 0 0-2 2v6H4a2.006 2.006 0 0 0-2 2v14a2.006 2.006 0 0 0 2 2h3v6a2.006 2.006 0 0 0 2 2h5v4a2.006 2.006 0 0 0 2 2h6a2.006 2.006 0 0 0 2-2M24 9V3a2.006 2.006 0 0 1 2-2h6a2.006 2.006 0 0 1 2 2v4h5a2.006 2.006 0 0 1 2 2v6h3a2.006 2.006 0 0 1 2 2v14a2.006 2.006 0 0 1-2 2h-3v6a2.006 2.006 0 0 1-2 2h-5v4a2.006 2.006 0 0 1-2 2h-6a2.006 2.006 0 0 1-2-2v-6"/></g><g data-name="&lt;Group&gt;"><rect width="16" height="16" x="16" y="16" fill="#31e8bb" rx="2" ry="2"/><path fill="none" stroke="#4c5b66" stroke-linejoin="round" stroke-width="2" d="M32 30a2.006 2.006 0 0 1-2 2H18a2.006 2.006 0 0 1-2-2M16 18a2.006 2.006 0 0 1 2-2h12a2.006 2.006 0 0 1 2 2"/></g><path fill="none" stroke="#4c5b66" stroke-linejoin="round" stroke-width="2" d="M24 32v4M28 32v4M20 32v4M24 12v4M28 12v4M20 12v4M16 24h-4M16 28h-4M16 20h-4M36 24h-4M36 28h-4M36 20h-4M20 28v-6a.979.979 0 0 1 1-1h2a.979.979 0 0 1 1 1v6M28 20v8M20 25h4M14 7v5M34 36v5M41 15v5M7 28v5M7 24v2M41 22v2"/></g></svg>